<svg xmlns="http://www.w3.org/2000/svg" xmlns:xlink="http://www.w3.org/1999/xlink" width="246" height="187" viewBox="0 0 246 187">
  <defs>
    <clipPath id="clip-path">
      <rect id="矩形_6" data-name="矩形 6" width="246" height="187" transform="translate(-1 622)" fill="#fff"/>
    </clipPath>
    <linearGradient id="linear-gradient" x1="0.5" y1="1" x2="0.5" gradientUnits="objectBoundingBox">
      <stop offset="0" stop-color="#fff9ef"/>
      <stop offset="0.296" stop-color="#fff6e5"/>
      <stop offset="1" stop-color="#fff1dd"/>
    </linearGradient>
    <linearGradient id="linear-gradient-3" x1="0.5" y1="0" x2="0.5" y2="1" xlink:href="#linear-gradient"/>
    <linearGradient id="linear-gradient-4" x1="0.5" x2="0.5" y2="1" gradientUnits="objectBoundingBox">
      <stop offset="0" stop-color="#fbf3e6"/>
      <stop offset="0.296" stop-color="#fbf4e6"/>
      <stop offset="1" stop-color="#ffe0b5"/>
    </linearGradient>
    <linearGradient id="linear-gradient-8" x1="0.5" x2="0.5" y2="1" gradientUnits="objectBoundingBox">
      <stop offset="0" stop-color="#f79c9b"/>
      <stop offset="1" stop-color="#f67c7b"/>
    </linearGradient>
    <linearGradient id="linear-gradient-9" x1="0.5" y1="0" x2="0.5" y2="1" xlink:href="#linear-gradient-8"/>
    <linearGradient id="linear-gradient-10" x1="0.5" x2="0.5" y2="1" gradientUnits="objectBoundingBox">
      <stop offset="0.296" stop-color="#fbeae6"/>
      <stop offset="1" stop-color="#eae8db"/>
    </linearGradient>
    <linearGradient id="linear-gradient-12" x1="0.5" x2="0.5" y2="1" gradientUnits="objectBoundingBox">
      <stop offset="0" stop-color="#f7decf"/>
      <stop offset="0.296" stop-color="#ffefde"/>
      <stop offset="1" stop-color="#fff"/>
    </linearGradient>
  </defs>
  <g id="蒙版组_3" data-name="蒙版组 3" transform="translate(1 -622)" clip-path="url(#clip-path)">
    <g id="组_31" data-name="组 31" transform="translate(-1 -38.078)">
      <path id="路径_99" data-name="路径 99" d="M458.144,448.192v-13.3a73.248,73.248,0,0,1,.614-9.462,5.044,5.044,0,0,1,.489-.638,1.919,1.919,0,0,1,.293-.337,1.687,1.687,0,0,1,.338-.241,6.814,6.814,0,0,1,4.643-.9c1.388.108,3.309.542,4.314-1.119,1.21-2,.987-5.6,1.041-7.993.08-3.322.027-6.669-.169-9.979q-.187-3.3-.587-6.573a120.29,120.29,0,0,0-2.206-12.8c-1.174-5.164-2.313-11.171.2-16,2.188-4.165,6.164-4.8,9.242-2,3.5,3.2,4.51,8.679,4.536,14.12.036,6.356-.383,12.7-.285,19.068.053,3.359.16,6.7.338,10.039a37.006,37.006,0,0,0,1.183,8.39,16.679,16.679,0,0,0,17.443,12.567,3.986,3.986,0,0,0,1.895-.313,11.14,11.14,0,0,0,1.859-1,12.952,12.952,0,0,0,4.038-4.743,63.06,63.06,0,0,0,3.531-7.1c.934-2.275,1.69-4.671,2.66-6.922,1.912-4.49,4.857-7.861,8.726-8.619a7.694,7.694,0,0,1,5.408.819c1.734.975,2.971,2.733,4.35,4.382a5.974,5.974,0,0,0,2.3,2.034c.792.241,1.637-.421,2.241-1.047,1.672-1.733,2.339-4.442,2.98-7.042,2.562-10.34,3.795-14.686,12.5-18.8,3.5-1.649,7.182-.384,10.268,2.373,3.122,2.757,5.607,13.445,5.51,19.319a192.361,192.361,0,0,0,.752,19.489,159.5,159.5,0,0,0,1.922,16.479,21.544,21.544,0,0,0,2.241,6.765c.8,1.432,1.432,2.408,2.784,2.444a3.609,3.609,0,0,0,3.2-1.806,14.208,14.208,0,0,0,1.094-3.551c.356-1.4.738-2.793,1.13-4.165q1.241-4.37,2.49-8.727c.534-1.818,1.343-3.671,2.775-4.382,1.53-.746,3.211.265,4.2,1.926.16,1.986,2.925,8.126,2.925,10.173l-1.431,9.472c0,10.75,5.415,23.275,1.431,31.7h-2.685s-25.866,22.131-40.009,22.131H498.144C476.05,502.325,458.144,478.093,458.144,448.192Z" transform="translate(-348.611 368.959)" fill="url(#linear-gradient)"/>
      <path id="路径_100" data-name="路径 100" d="M462.421,498.418s-.362-69.824.134-72.892c.176-.229.058-.57.278-.775a2.109,2.109,0,0,1,.363-.337,2.147,2.147,0,0,1,.418-.241,7.063,7.063,0,0,1,4.747-.9c1.717.108,4.1.541,5.34-1.119,1.5-2,1.222-5.594,1.288-7.988a97.132,97.132,0,0,0-.209-9.973q-.231-3.3-.727-6.568a99.345,99.345,0,0,0-2.73-12.787c-1.453-5.161-2.863-11.164.253-15.987a7.7,7.7,0,0,1,11.439-2c4.327,3.2,5.582,8.673,5.615,14.111.044,6.352-.473,12.691-.352,19.055.066,3.356.2,6.7.418,10.033a30.383,30.383,0,0,0,1.464,8.385,17.648,17.648,0,0,0,9.82,10.43,24.757,24.757,0,0,0,11.769,2.129,5.994,5.994,0,0,0,2.345-.313,15.116,15.116,0,0,0,2.3-1,14.183,14.183,0,0,0,5-4.74,59.175,59.175,0,0,0,4.371-7.1c1.156-2.274,2.092-4.668,3.292-6.917,2.367-4.487,6.011-7.855,10.8-8.613a11.53,11.53,0,0,1,6.694.818c2.147.974,3.677,2.731,5.384,4.379a7.143,7.143,0,0,0,2.852,2.033,3.451,3.451,0,0,0,2.774-1.047c2.07-1.732,2.9-4.439,3.688-7.037,3.171-10.333,4.7-14.676,15.475-18.79,4.338-1.648,8.889-.384,12.709,2.371,3.864,2.755,6.94,13.436,6.819,19.306a155.431,155.431,0,0,0,.93,19.476c.93,8.637,1.223,11.127,2.379,16.469a18.833,18.833,0,0,0,2.774,6.761c.991,1.432,1.773,2.406,3.446,2.442a4.787,4.787,0,0,0,3.963-1.8,12.292,12.292,0,0,0,1.354-3.549c.44-1.4.914-2.791,1.4-4.162q1.536-4.367,3.083-8.721c.661-1.817,1.663-3.669,3.435-4.379,1.894-.746,3.974.265,5.2,1.925.2,1.985.3,3.994.3,6.039v13.293a57.584,57.584,0,0,1-7.795,29.16.043.043,0,0,0-.011.024c-8.819,14.989-24.21,24.913-41.715,24.913H509.977A283.765,283.765,0,0,1,462.421,498.418Z" transform="translate(-463.905 348.959)" fill="url(#linear-gradient)"/>
      <path id="路径_101" data-name="路径 101" d="M625.247,390.28c0,16.517.5,48.832,0,51.9-.176.229-.058.57-.278.775a2.109,2.109,0,0,1-.363.337,2.147,2.147,0,0,1-.418.241,10.143,10.143,0,0,1-5.747.9c-1.717-.108-4.1-.541-5.34,1.119-1.5,2-1.222,5.594-1.288,7.988a97.132,97.132,0,0,0,.209,9.973q.231,3.3.727,6.568a99.345,99.345,0,0,0,2.73,12.787c1.453,5.161,2.863,11.164-.253,15.987a7.7,7.7,0,0,1-11.439,2c-4.327-3.2-5.582-8.673-5.615-14.111-.044-6.352.473-12.691.352-19.055-.066-3.356-.2-6.7-.418-10.033a30.379,30.379,0,0,0-1.464-8.385,17.648,17.648,0,0,0-9.82-10.43,24.757,24.757,0,0,0-11.769-2.129,5.994,5.994,0,0,0-2.345.313,15.116,15.116,0,0,0-2.3,1,14.183,14.183,0,0,0-5,4.74,59.175,59.175,0,0,0-4.371,7.1c-1.156,2.274-2.092,4.668-3.292,6.917-2.367,4.487-6.011,7.855-10.8,8.613a11.53,11.53,0,0,1-6.694-.818c-2.147-.974-3.677-2.731-5.384-4.379a7.143,7.143,0,0,0-2.852-2.033,3.451,3.451,0,0,0-2.774,1.047c-2.07,1.732-9.578,13.519-9.435,18.794.2,7.317,4.331,16.887-7.993,15.909-9.212-.731-5.847-7.946-4.045-15.909s-4.622-25.034-6.711-26.541c-3.864-2.755-12.66-18.706-13.816-24.047a18.833,18.833,0,0,0-2.774-6.761c-.991-1.432-1.773-2.406-3.446-2.442a4.787,4.787,0,0,0-3.963,1.8,12.292,12.292,0,0,0-1.354,3.549c-.44,1.4-.914,2.791-1.4,4.162-1.024,2.911-17.638,6.4-18.673,9.3-.661,1.817-5.207-1.023-6.98-.313-1.894.746-3.974-.265-5.2-1.925-.2-1.985-.3-3.994-.3-6.039l19.135-9.179a57.584,57.584,0,0,1,7.795-29.16.043.043,0,0,0,.011-.024c8.819-14.989,24.21-24.913,41.715-24.913h65.011C604.172,365.472,625.247,360.4,625.247,390.28Z" transform="translate(-67.293 -411.041)" fill="url(#linear-gradient-3)"/>
      <path id="路径_50" data-name="路径 50" d="M42.022,479.033l-2.638-1.522,1.522-2.638a1.076,1.076,0,1,0-1.863-1.076l-1.522,2.638-2.638-1.522a1.076,1.076,0,1,0-1.076,1.863l2.638,1.522-1.522,2.638a1.076,1.076,0,1,0,1.863,1.076l1.522-2.638,2.638,1.522a1.076,1.076,0,1,0,1.076-1.863Z" transform="translate(-10.338 327.21)" fill="url(#linear-gradient-4)"/>
      <g id="组_30" data-name="组 30" transform="translate(28.572 684.336)">
        <path id="路径_52" data-name="路径 52" d="M610.322,205.524a3.569,3.569,0,1,0-3.569-3.569A3.573,3.573,0,0,0,610.322,205.524Zm0-6.155a2.585,2.585,0,1,1-2.585,2.585A2.588,2.588,0,0,1,610.322,199.369Z" transform="translate(-454.812 -163.759)" fill="url(#linear-gradient-4)"/>
        <path id="路径_53" data-name="路径 53" d="M97.5,130.816a3.333,3.333,0,1,0-3.333-3.333A3.341,3.341,0,0,0,97.5,130.816Zm0-5.686a2.349,2.349,0,1,1-2.349,2.349A2.354,2.354,0,0,1,97.5,125.131Z" transform="translate(-76.642 -124.15)" fill="url(#linear-gradient-4)"/>
        <path id="路径_54" data-name="路径 54" d="M713.5,250.495a3.077,3.077,0,1,0-3.077-3.077A3.078,3.078,0,0,0,713.5,250.495Z" transform="translate(-517.876 -140.203)" fill="url(#linear-gradient-4)"/>
        <g id="组_24" data-name="组 24" transform="translate(51.619 37.913)">
          <path id="路径_65" data-name="路径 65" d="M269.7,280.69a3.445,3.445,0,1,1,3.445-3.445A3.449,3.449,0,0,1,269.7,280.69Zm0-5.905a2.461,2.461,0,1,0,2.461,2.461A2.461,2.461,0,0,0,269.7,274.784Z" transform="translate(-266.26 -273.8)" fill="#fee4c0"/>
        </g>
        <ellipse id="椭圆_15" data-name="椭圆 15" cx="1.509" cy="1.509" rx="1.509" ry="1.509" transform="translate(128.635 80.783)" fill="#fff"/>
        <path id="路径_66" data-name="路径 66" d="M569.112,434.613l-2.638-1.522L568,430.453a1.076,1.076,0,0,0-1.863-1.076l-1.522,2.638-2.638-1.522a1.076,1.076,0,0,0-1.076,1.863l2.638,1.522-1.522,2.638a1.076,1.076,0,0,0,1.863,1.076l1.522-2.638,2.638,1.522a1.076,1.076,0,1,0,1.076-1.863Z" transform="translate(-415.448 -324.883)" fill="#fff"/>
        <path id="路径_67" data-name="路径 67" d="M218.532,448.773l-2.638-1.522,1.522-2.638a1.076,1.076,0,0,0-1.863-1.076l-1.522,2.638-2.638-1.522a1.076,1.076,0,1,0-1.076,1.863l2.638,1.522-1.522,2.638a1.076,1.076,0,0,0,1.863,1.076l1.522-2.638,2.638,1.522a1.076,1.076,0,1,0,1.076-1.863Z" transform="translate(-179.884 -334.398)" fill="#fff"/>
        <path id="路径_71" data-name="路径 71" d="M316.393,461.983c-2.319,6.128-.623,12.45,3.786,14.12s9.865-1.945,12.185-8.077a15.017,15.017,0,0,0,.912-7.326H316.944C316.747,461.113,316.56,461.54,316.393,461.983Z" transform="translate(-250.824 -346.292)" fill="url(#linear-gradient-8)"/>
        <path id="路径_72" data-name="路径 72" d="M447.269,460.7h-5.535a15.017,15.017,0,0,0,.912,7.326c2.32,6.128,7.775,9.744,12.185,8.077,2.4-.909,3.993-3.2,4.577-6.076Z" transform="translate(-335.658 -346.292)" fill="url(#linear-gradient-9)"/>
        <g id="组_26" data-name="组 26" transform="translate(20.189 62.747)">
          <path id="路径_73" data-name="路径 73" d="M314.219,287.784s-1.99-12.276-6.054-17.844-9.128-6.642-14.317-5.032-12.53,5.282-27.333,24.644S244.749,316,249.179,320.936s24.028-1.44,37.822-20.77a105.708,105.708,0,0,0,7.656-12.54c1.324-2.634,5.967-10.632,7.054,2.921A118.513,118.513,0,0,0,314.219,287.784Z" transform="translate(-247.86 -264.226)" fill="#fff"/>
          <path id="路径_74" data-name="路径 74" d="M306.692,282.758c-3.606-4.175-7.022-2.185-7.971,0s-8.068,17.085-15.849,26.051-16.039,16.849-26.764,19.788c-2.8.639-6.749,1.453-8.2-2.99a4.815,4.815,0,0,0,1.273,3.972c4.43,4.934,24.028-1.44,37.822-20.77a105.733,105.733,0,0,0,7.656-12.539c1.324-2.634,5.967-10.632,7.054,2.921,4.356-.7,8.415-1.685,10.669-2.268C311.511,293.413,309.409,285.905,306.692,282.758Z" transform="translate(-247.864 -272.869)" fill="url(#linear-gradient-10)"/>
          <path id="路径_75" data-name="路径 75" d="M364.3,298.988c.356-3.328.926-15.081-8.4-16.678a4.2,4.2,0,0,0-1.157,1.523c-.3.69-1.217,2.648-2.574,5.286,2.907-.1,8.42.991,8.35,10.66C361.863,299.52,363.14,299.252,364.3,298.988Z" transform="translate(-303.887 -273.939)" fill="#f4d8d1"/>
          <path id="路径_76" data-name="路径 76" d="M410.11,287.784s1.99-12.276,6.055-17.844,9.128-6.642,14.317-5.032,12.53,5.282,27.333,24.644S479.58,316,475.15,320.936s-24.028-1.44-37.822-20.77a105.7,105.7,0,0,1-7.656-12.54c-1.324-2.634-5.967-10.632-7.054,2.921A118.516,118.516,0,0,1,410.11,287.784Z" transform="translate(-335.007 -264.226)" fill="#fff"/>
          <path id="路径_77" data-name="路径 77" d="M419.769,282.758c3.606-4.175,7.022-2.185,7.971,0s8.068,17.085,15.849,26.051,16.039,16.849,26.764,19.788c2.8.639,6.749,1.453,8.2-2.99a4.816,4.816,0,0,1-1.273,3.972c-4.43,4.934-24.028-1.44-37.822-20.77a105.714,105.714,0,0,1-7.656-12.539c-1.324-2.634-5.967-10.632-7.054,2.921-4.356-.7-8.415-1.685-10.669-2.268C414.955,293.413,417.052,285.905,419.769,282.758Z" transform="translate(-337.139 -272.869)" fill="url(#linear-gradient-10)"/>
          <path id="路径_78" data-name="路径 78" d="M422.765,298.988c-.356-3.328-.926-15.081,8.4-16.678a4.2,4.2,0,0,1,1.157,1.523c.3.69,1.217,2.648,2.574,5.286-2.907-.1-8.42.991-8.35,10.66C425.2,299.52,423.927,299.252,422.765,298.988Z" transform="translate(-341.719 -273.939)" fill="#f4d8d1"/>
          <path id="路径_79" data-name="路径 79" d="M391.942,353.557c-1.5-20.4-16.59-42-43.59-42-23.385,0-44.053,22.251-44.053,42s21.51,29.5,44.053,29.5S393.382,373.248,391.942,353.557Z" transform="translate(-278.175 -289.65)" fill="#fff"/>
          <ellipse id="椭圆_16" data-name="椭圆 16" cx="6.453" cy="9.23" rx="6.453" ry="9.23" transform="translate(47.395 35.945)" fill="#4c2c00"/>
          <ellipse id="椭圆_17" data-name="椭圆 17" cx="2.824" cy="2.824" rx="2.824" ry="2.824" transform="translate(50.121 41.471)" fill="#fff"/>
          <ellipse id="椭圆_18" data-name="椭圆 18" cx="1.495" cy="1.495" rx="1.495" ry="1.495" transform="translate(55.435 48.188)" fill="#fff"/>
          <ellipse id="椭圆_19" data-name="椭圆 19" cx="6.453" cy="9.23" rx="6.453" ry="9.23" transform="translate(78.033 35.945)" fill="#4c2c00"/>
          <ellipse id="椭圆_20" data-name="椭圆 20" cx="2.824" cy="2.824" rx="2.824" ry="2.824" transform="translate(82.565 41.471)" fill="#fff"/>
          <ellipse id="椭圆_21" data-name="椭圆 21" cx="1.495" cy="1.495" rx="1.495" ry="1.495" transform="translate(79.908 48.188)" fill="#fff"/>
          <ellipse id="椭圆_22" data-name="椭圆 22" cx="8.971" cy="4.129" rx="8.971" ry="4.129" transform="translate(35.008 60.667)" fill="#ffdcee"/>
          <ellipse id="椭圆_23" data-name="椭圆 23" cx="8.971" cy="4.129" rx="8.971" ry="4.129" transform="translate(85.388 60.667)" fill="#ffdcee"/>
          <ellipse id="椭圆_24" data-name="椭圆 24" cx="5.596" cy="3.819" rx="5.596" ry="3.819" transform="translate(64.957 62.482)" fill="#4c2c00"/>
          <ellipse id="椭圆_25" data-name="椭圆 25" cx="3.398" cy="4.897" rx="3.398" ry="4.897" transform="translate(67.155 74.489)" fill="#f48484"/>
          <path id="路径_80" data-name="路径 80" d="M396.853,435.08A3.328,3.328,0,0,0,393.9,437.8a3,3,0,0,0,5.906,0A3.323,3.323,0,0,0,396.853,435.08Z" transform="translate(-326.3 -355.995)" fill="#f7b7b7"/>
          <ellipse id="椭圆_26" data-name="椭圆 26" cx="1.426" cy="1.051" rx="1.426" ry="1.051" transform="translate(67.701 64.694)" fill="#fff"/>
          <path id="路径_81" data-name="路径 81" d="M335.3,455.836c3.273-8.647.88-17.566-5.342-19.923s-13.919,2.745-17.191,11.4-.879,17.566,5.342,19.922S332.03,464.482,335.3,455.836Z" transform="translate(-281.937 -356.133)" fill="url(#linear-gradient-12)"/>
          <path id="路径_82" data-name="路径 82" d="M438.15,455.836c-3.273-8.647-.879-17.566,5.342-19.923s13.919,2.745,17.191,11.4.879,17.566-5.342,19.922S441.422,464.482,438.15,455.836Z" transform="translate(-349.28 -356.133)" fill="url(#linear-gradient-12)"/>
        </g>
      </g>
      <ellipse id="椭圆_31" data-name="椭圆 31" cx="4" cy="3.5" rx="4" ry="3.5" transform="translate(76 744.078)" fill="#fff"/>
      <circle id="椭圆_32" data-name="椭圆 32" cx="2.5" cy="2.5" r="2.5" transform="translate(68 751.078)" fill="#fff"/>
    </g>
  </g>
</svg>
