<svg xmlns="http://www.w3.org/2000/svg" xmlns:xlink="http://www.w3.org/1999/xlink" width="246.582" height="145" viewBox="0 0 246.582 145">
  <defs>
    <clipPath id="clip-path">
      <path id="路径_103" data-name="路径 103" d="M0,0H246.582V145L88.441,94.56l-9.014-44.8L0,46.99Z" transform="translate(-2)" fill="#fff"/>
    </clipPath>
    <linearGradient id="linear-gradient" x1="0.5" x2="0.5" y2="1" gradientUnits="objectBoundingBox">
      <stop offset="0" stop-color="#fff9ef"/>
      <stop offset="0.296" stop-color="#fff6e5"/>
      <stop offset="1" stop-color="#fff1dd"/>
    </linearGradient>
  </defs>
  <g id="蒙版组_1" data-name="蒙版组 1" transform="translate(2)" clip-path="url(#clip-path)">
    <path id="路径_102" data-name="路径 102" d="M139.09,40.668V1.126H387.322V34.969l-.043,2.157s-3.768-1.628-6.89.369c-1.916,1.225-3.589,3.816-4,8.991-1.07,13.606-3.232,51.676-.347,63.866s2.291,26.993-4.61,26.993-5.83-11.174-4.641-20.462,2.049-51.857-.528-56.936c-1.53-3.016-4.039-5.675-6.224-5.239-1.494.3-2.836,2.043-3.61,6.109-1.9,10.013.214,31.134-5.854,34.725s-9.817-1.316-10.887-6.645c-1.041-5.179-1.91-31.077-4.973-34.008l-.049.028c-.066-.061-.131-.124-.2-.178l.046-.03c-.015-.013-.03-.029-.046-.042l-.02-.018a7.668,7.668,0,0,0-6.458-1.655c-2.224.562-4.377,2.474-5.768,6.662-2.856,8.6-7.318,13.17-12.137,10.231s-8.656-10.558-13.029-10.231a8.668,8.668,0,0,0-1.958.363,6.39,6.39,0,0,0-2.2,1.191c-1.99,1.669-3.065,4.789-2.441,9.984.982,8.163,2.052,14.912.446,20.68s-9.281,6.748-10.53-.761.982-13.388,1.16-20.571,1.029-14.947-1.538-18.285a13.8,13.8,0,0,0-2.763-2.575c-2.6-1.873-6.3-3.415-9.628-2.035-2,.828-3.87,2.709-5.286,6.206-4.878,12.046,1.226,16.552.989,21.342s-2.618,7.982-6.663,7.982-5.116-6.613-3.569-10.853S255.889,56.9,252.8,52.4a6.214,6.214,0,0,0-2.168-2.065,3.149,3.149,0,0,0-3.649.438,7.106,7.106,0,0,0-2.154,4.094c-.952,4.789-1.01,15.9,1.37,26.208s-1.173,14.9-4.743,14.468-6.085-4.6-3.467-13.307a45.255,45.255,0,0,0,.3-23.885c-.922-3.455-2.575-6.954-5.078-8.231-2.017-1.03-4.587-.618-7.773,2.426-7.139,6.821-10.947,11.175-16.3,10.449s-10.352-16.382-15.587-16.817a5.7,5.7,0,0,0-2.082.185c-3.594,1.046-4.64,5.983-2.915,12.3,2.023,7.4-1.292,10.792-3.791,10.5s-5.49-2.084-3.348-9.049.238-12.771-2.856-14.513a4.625,4.625,0,0,0-.855-.372,5.279,5.279,0,0,0-4.512.785c-2.056,1.309-4.169,3.977-5.937,8.44-3.451,8.708-11.779-1.273-13.683-4.9-1.077-2.052-1.935-3.767-2.977-4.456-.769-.508-1.637-.457-2.767.423-.048.038-.1.073-.145.114-2.766,2.285-.446,6.639-1.249,10.557s-3.659,3.592-4.908,2.83-3.212-2.938-1.249-7.945c1.466-3.739.891-7.476-.461-9.537A4.78,4.78,0,0,0,139.09,40.668Z" transform="translate(-139.101 -20.44)" fill="url(#linear-gradient)"/>
  </g>
</svg>
