<?xml version="1.0" encoding="utf-8"?>
<!-- Generator: Adobe Illustrator 24.0.0, SVG Export Plug-In . SVG Version: 6.00 Build 0)  -->
<svg version="1.1" id="图层_1" xmlns="http://www.w3.org/2000/svg" xmlns:xlink="http://www.w3.org/1999/xlink" x="0px" y="0px"
	 viewBox="0 0 562.9 124.2" style="enable-background:new 0 0 562.9 124.2;" xml:space="preserve">
<style type="text/css">
	.st0{fill:#FFFFFF;}
</style>
<g transform="matrix(1, 0, 0, 1, 0, 0)">
	<path id="路径_102-2" class="st0" d="M0.5,50.4V0.8h561v42.5l-0.1,2.7c0,0-8.5-2-15.6,0.5c-4.3,1.5-8.1,4.8-9,11.3
		c-2.4,17.1,1.7,32.6-18.5,31c-20.2-1.6-13.5-21.2-18.4-20.7c-3.4,0.4-6.4,2.6-8.2,7.7c-4.3,12.6,0.5,23.6-13.2,28.1
		s-22.2-1.7-24.6-8.3c-2.4-6.5-4.4-23.5-11.3-27.2l-0.1,0c-0.1-0.1-0.3-0.2-0.4-0.2c0,0,0.1,0,0.1,0c0,0-0.1,0-0.1-0.1l0,0
		c-4.6-2-9.6-2.7-14.6-2.1c-5.4,0.6-10.2,3.7-13,8.4C408,85.1,397.9,90.8,387,87.1s-19.6-13.3-29.4-12.9c-1.5,0.1-3,0.2-4.4,0.5
		c-1.7,0.3-3.4,0.8-5,1.5c-4.5,2.1-6.9,6-5.5,12.5c2.2,10.3,4.6,18.7,1,26s-21,8.5-23.8-1s2.2-16.8,2.6-25.8s2.3-18.8-3.5-23
		c-2-1.3-4-2.4-6.2-3.2c-5.9-2.4-14.2-4.3-21.8-2.6c-4.8,1-9.1,3.8-11.9,7.8c-11,15.1,2.8,20.8,2.2,26.8s-5.9,10-15.1,10
		s-11.6-8.3-8.1-13.6c3.5-5.3,6.4-19.4-0.6-25c-1.4-1.2-3.1-2.1-4.9-2.6c-2.7-0.8-5.7-0.6-8.2,0.5c-2.2,1-4,2.8-4.9,5.1
		c-2.2,6-2.3,20,3.1,32.9s-2.7,18.7-10.7,18.2s-13.8-5.8-7.8-16.7c5-9.3,5.3-20.5,0.7-30c-2.1-4.3-5.8-8.7-11.5-10.3
		c-4.6-1.3-10.4-0.8-17.6,3c-16.1,8.6-24.7,14-36.8,13.1s-23.4-20.6-35.2-21.1c-1.6-0.1-3.1,0-4.7,0.2c-8.1,1.3-10.5,7.5-6.6,15.4
		c4.6,9.3-2.9,13.6-8.6,13.2s-12.4-2.6-7.6-11.4s0.5-16-6.5-18.2c-0.6-0.2-1.3-0.4-1.9-0.5c-3.4-0.6-6.9-0.2-10.2,1
		c-5.5,2.1-10.1,5.8-13.4,10.6c-7.8,10.9-26.6-1.6-30.9-6.2c-2.4-2.6-4.4-4.7-6.7-5.6c-1.7-0.6-3.7-0.6-6.3,0.5
		c-0.1,0-0.2,0.1-0.3,0.1c-6.3,2.9-1,8.3-2.8,13.3S8.8,74.4,6,73.5s-7.3-3.7-2.8-10c3.3-4.7,2-9.4-1-12C1.7,51.1,1.1,50.7,0.5,50.4z
		"/>
</g>
</svg>
