<svg xmlns="http://www.w3.org/2000/svg" xmlns:xlink="http://www.w3.org/1999/xlink" width="158" height="280" viewBox="0 0 158 280">
  <defs>
    <clipPath id="clip-path">
      <rect id="矩形_5" data-name="矩形 5" width="158" height="280" transform="translate(1240 418)" fill="#fff" stroke="#707070" stroke-width="1"/>
    </clipPath>
    <linearGradient id="linear-gradient" x1="8.284" x2="8.284" y2="1" gradientUnits="objectBoundingBox">
      <stop offset="0.296" stop-color="#fbeae6"/>
      <stop offset="1" stop-color="#eae8db"/>
    </linearGradient>
    <linearGradient id="linear-gradient-2" x1="15.455" y1="0" x2="15.455" y2="1" xlink:href="#linear-gradient"/>
  </defs>
  <g id="蒙版组_2" data-name="蒙版组 2" transform="translate(-1240 -418)" clip-path="url(#clip-path)">
    <g id="组_32" data-name="组 32" transform="translate(818.594 226.943)">
      <path id="路径_28" data-name="路径 28" d="M578.12,337.008s17.746-11.48,39.883-7.226,29.675,24.946,28.528,31.948-5.25,8.3-18.226,5.724-35.592-9.1-38.741-10.781S578.12,337.008,578.12,337.008Z" transform="translate(-84.799 -40.272)" fill="#fff"/>
      <path id="路径_29" data-name="路径 29" d="M606.288,345.89c5.438.693,13.643,3.165,17.272,10.182s9.447,19.769,18.226,18.784c2.768-.4,6.485-1.434,6.678-8.42a12.178,12.178,0,0,1,0,3.3c-1.147,7-5.25,8.3-18.226,5.724s-35.592-9.1-38.741-10.781c-2.143-1.142-6.673-9.843-9.348-15.275C585.539,347.986,595.413,344.451,606.288,345.89Z" transform="translate(-86.728 -48.273)" fill="url(#linear-gradient)"/>
      <path id="路径_30" data-name="路径 30" d="M590.329,364.9c-.876-1.455-1.788-3.092-2.659-4.739,5.094-2.012,22-7.565,37.875-.1.235.37.459.746.662,1.147,1.882,3.649,4.364,8.842,7.539,12.851C624.847,370.679,598.988,361.462,590.329,364.9Z" transform="translate(-89.371 -53.408)" fill="#f4d8d1"/>
      <path id="路径_31" data-name="路径 31" d="M526.69,283.28s2.956-19.868,15.838-31.833c5.917-5.14,20.421-10.479,30.629-3.165s12.022,17.991,5.344,25.5c-2.768,2.768-4.676,3.66-7.059,3.065s-2.367-4.546-2.367-4.546-17,4.744-23.111,17.5C533.368,285.36,526.69,283.28,526.69,283.28Z" transform="translate(-60.182 0)" fill="#fff"/>
      <path id="路径_32" data-name="路径 32" d="M548.362,298.081c-8.018-2.831-13.638-4.7-16.662-5.688,1.246-4.854,5.474-19.305,13.039-25.749,3.055-2.57,13.55-8.008,20.8-1.778s5.933,15.718,5.933,15.718S554.472,285.329,548.362,298.081Z" transform="translate(-62.58 -8.274)" fill="url(#linear-gradient-2)"/>
      <path id="路径_33" data-name="路径 33" d="M552.726,273.613c2.409-2.237,8.712-6.115,17.6-5.719a17.379,17.379,0,0,1,5.474,10.1c-4.343.412-16.266,2.049-22.975,7.982-2.669,2.763-4.426,4.332-5.578,12.945-2.3-.792-4.306-1.481-6.037-2.059C541.961,292.845,544.865,280.359,552.726,273.613Z" transform="translate(-67.132 -11.088)" fill="#f4d8d1"/>
      <path id="路径_34" data-name="路径 34" d="M414.13,414.776l-.02,71.107a18.972,18.972,0,0,0,9.484-2.5,21.559,21.559,0,0,0,7.78-7.725s10.29-1.278,12.332-1.632c8.586-.594,13.357-5.735,19.274-19.373s-4.7-21.166-4.7-21.166l2.315-4.666-10.979-14.034s-4.39,4.082-6.1,5.662c-1.335-1.976-8.206-6.131-12.215-6.7,2.482-5.709-2.289-8.274-2.289-8.274Zm30.342,48.281c.761-2.591,7.377-9.733,7.377-9.733-.573,2.836-4.265,10.083-4.265,10.083S446.318,463.339,444.472,463.057Z" transform="translate(-6.304 -76.954)" fill="#fff"/>
      <path id="路径_35" data-name="路径 35" d="M409.25,471.424s7.632-18.19,20.994-15.291c2.419.657,10.557,5.537,6.871,15.291-1.4,3.295-6.616,9.092-9.16,11.2s-6.616,6.72-6.485,8.7C414.015,489.1,409.25,471.424,409.25,471.424Z" transform="translate(-3.968 -101.054)" fill="#f6f5f0"/>
      <path id="路径_36" data-name="路径 36" d="M476.615,423.32l10.979,14.034-2.315,4.666h0c-14.618-.938-14.77-13.034-14.77-13.034C472.225,427.4,476.615,423.32,476.615,423.32Z" transform="translate(-33.291 -85.498)" fill="#f6f5f0"/>
      <path id="路径_37" data-name="路径 37" d="M431.313,413.738a28.6,28.6,0,0,1-17.173,1.037l14.884-9.306C429.019,405.465,433.794,408.03,431.313,413.738Z" transform="translate(-6.309 -76.954)" fill="#f6f5f0"/>
      <path id="路径_38" data-name="路径 38" d="M477.311,487.18c-.86,2.523-2.07,5.255-2.07,5.255s-6.616,7.142-7.377,9.733L463,502.9C463,502.893,471.779,491.132,477.311,487.18Z" transform="translate(-29.696 -116.065)" fill="#f6f5f0"/>
      <path id="路径_39" data-name="路径 39" d="M447.4,530.18s4.072-.13,10.307-.527c8.013-.891,12.069-3.483,14.045-5.464-3.436,4.353-7.184,6.3-12.262,6.652l-12.4,1.846Z" transform="translate(-22.081 -133.78)" fill="#f6f5f0"/>
      <g id="组_13" data-name="组 13" transform="translate(428.14 280.327)">
        <path id="路径_41" data-name="路径 41" d="M461.945,325.811c14.519-15.046,39.007-19.357,58.859,1.215,18.674,19.347,15.692,45.935,1.173,60.981s-37.182,10.672-53.755-6.5S447.425,340.857,461.945,325.811Z" transform="translate(-453.095 -313.037)" fill="#fff"/>
        <ellipse id="椭圆_4" data-name="椭圆 4" cx="9.78" cy="6.83" rx="9.78" ry="6.83" transform="translate(51.002 46.84) rotate(-47.943)" fill="#4c2c00"/>
        <ellipse id="椭圆_5" data-name="椭圆 5" cx="2.935" cy="3.045" rx="2.935" ry="3.045" transform="translate(60.984 41.125)" fill="#fff"/>
        <ellipse id="椭圆_6" data-name="椭圆 6" cx="1.554" cy="1.611" rx="1.554" ry="1.611" transform="translate(55.473 43.627)" fill="#fff"/>
        <ellipse id="椭圆_7" data-name="椭圆 7" cx="9.78" cy="6.83" rx="9.78" ry="6.83" transform="translate(28.467 23.494) rotate(-47.943)" fill="#4c2c00"/>
        <ellipse id="椭圆_8" data-name="椭圆 8" cx="2.935" cy="3.045" rx="2.935" ry="3.045" transform="translate(37.127 16.408)" fill="#fff"/>
        <ellipse id="椭圆_9" data-name="椭圆 9" cx="1.554" cy="1.611" rx="1.554" ry="1.611" transform="translate(37.477 24.984)" fill="#fff"/>
        <ellipse id="椭圆_10" data-name="椭圆 10" cx="4.369" cy="9.499" rx="4.369" ry="9.499" transform="translate(45.741 62.751) rotate(-43.44)" fill="#ffdcee"/>
        <ellipse id="椭圆_11" data-name="椭圆 11" cx="4.369" cy="9.499" rx="4.369" ry="9.499" transform="translate(8.686 24.364) rotate(-43.44)" fill="#ffdcee"/>
        <ellipse id="椭圆_12" data-name="椭圆 12" cx="4.04" cy="5.928" rx="4.04" ry="5.928" transform="translate(27.822 45.843) rotate(-42.228)" fill="#4c2c00"/>
        <ellipse id="椭圆_13" data-name="椭圆 13" cx="5.187" cy="3.592" rx="5.187" ry="3.592" transform="matrix(0.671, -0.742, 0.742, 0.671, 19.016, 58.939)" fill="#f48484"/>
        <path id="路径_42" data-name="路径 42" d="M497.551,422.132a3.679,3.679,0,0,1,.167,4.322,3.465,3.465,0,0,1-3.993-.36,3.8,3.8,0,0,1-.349-4.134A3.369,3.369,0,0,1,497.551,422.132Z" transform="translate(-472.169 -364.872)" fill="#f7b7b7"/>
        <ellipse id="椭圆_14" data-name="椭圆 14" cx="1.11" cy="1.512" rx="1.11" ry="1.512" transform="matrix(0.748, -0.664, 0.664, 0.748, 34.396, 47.803)" fill="#fff"/>
      </g>
    </g>
  </g>
</svg>
